<?xml version="1.0" encoding="utf-8"?>
<!-- Generator: Adobe Illustrator 27.8.1, SVG Export Plug-In . SVG Version: 6.00 Build 0)  -->
<svg version="1.1" id="Layer_1" xmlns="http://www.w3.org/2000/svg" xmlns:xlink="http://www.w3.org/1999/xlink" x="0px" y="0px"
	 viewBox="0 0 500 500" style="enable-background:new 0 0 500 500;" xml:space="preserve">
<style type="text/css">
	.st0{stroke:#E6E6E6;stroke-linecap:round;stroke-miterlimit:10;}
	.st1{fill:#CCCCCC;}
	.st2{fill:#00FFFF;stroke:#00FFFF;stroke-linecap:round;stroke-miterlimit:10;}
	.st3{fill:none;stroke:#FFFFFF;stroke-width:10;stroke-linecap:round;stroke-miterlimit:10;}
	.st4{fill:#39B54A;stroke:#006837;stroke-miterlimit:10;}
	.st5{fill:none;stroke:#00FF00;stroke-width:8;stroke-linecap:round;stroke-miterlimit:10;}
</style>
<g>
	<rect x="58.36" y="31.71" class="st0" width="207.83" height="441.29"/>
	<rect x="234.48" y="67.47" class="st1" width="62.08" height="24.29"/>
	<rect x="234.48" y="110.65" class="st1" width="62.08" height="24.29"/>
	<rect x="234.48" y="326.58" class="st1" width="62.08" height="24.29"/>
	<rect x="234.48" y="240.21" class="st1" width="62.08" height="24.29"/>
	<rect x="234.48" y="197.02" class="st1" width="62.08" height="24.29"/>
	<rect x="234.48" y="153.84" class="st1" width="62.08" height="24.29"/>
	<rect x="234.48" y="283.39" class="st1" width="62.08" height="24.29"/>
	<rect x="234.48" y="369.76" class="st1" width="62.08" height="24.29"/>
	<rect x="234.48" y="412.95" class="st1" width="62.08" height="24.29"/>
	<rect x="28" y="67.47" class="st1" width="62.08" height="24.29"/>
	<rect x="28" y="110.65" class="st1" width="62.08" height="24.29"/>
	<rect x="28" y="326.58" class="st1" width="62.08" height="24.29"/>
	<rect x="28" y="240.21" class="st1" width="62.08" height="24.29"/>
	<rect x="28" y="197.02" class="st1" width="62.08" height="24.29"/>
	<rect x="28" y="153.84" class="st1" width="62.08" height="24.29"/>
	<rect x="28" y="283.39" class="st1" width="62.08" height="24.29"/>
	<rect x="28" y="369.76" class="st1" width="62.08" height="24.29"/>
	<rect x="28" y="412.95" class="st1" width="62.08" height="24.29"/>
	<path class="st1" d="M162.72,337.56c116.85-21.92,6.17-132.25,1.57-159.43h0.34C160.02,205.31,45.87,315.65,162.72,337.56"/>
</g>
<g>
	<path class="st2" d="M405.84,473.14c160.25-30.05,8.46-181.37,2.15-218.64h0.47C402.14,291.77,245.6,443.09,405.84,473.14"/>
	<path class="st3" d="M436.38,444.2c53.57-9.42,9.18-81.49,8.42-98.44"/>
</g>
<g>
	<path class="st4" d="M478.64,31.66C321.66,353.6,197.18,174.78,197.18,174.78l0,0C197.18,174.78,125.99-30.96,478.64,31.66
		L478.64,31.66z"/>
	<path class="st5" d="M156.13,300.34c0,0-21.41-128.9,126.17-172.77"/>
</g>
</svg>
